{
  "accessors": [
    {
      "bufferView": 2,
      "componentType": 5126,
      "count": 65532,
      "max": [
        12.87202262878418,
        3.0895273685455322,
        14.926493644714355
      ],
      "min": [
        -0.15000006556510925,
        -15.718386650085449,
        -14.265976905822754
      ],
      "type": "VEC3"
    },
    {
      "bufferView": 2,
      "byteOffset": 786384,
      "componentType": 5126,
      "count": 65532,
      "max": [
        0.99998629093170166,
        0.99996542930603027,
        0.99998974800109863
      ],
      "min": [
        -0.99513977766036987,
        -0.99998217821121216,
        -0.9999995231628418
      ],
      "type": "VEC3"
    },
    {
      "bufferView": 3,
      "componentType": 5126,
      "count": 65532,
      "max": [
        0.99999850988388062,
        0.99999606609344482,
        0.99999773502349854,
        1
      ],
      "min": [
        -0.99999815225601196,
        -0.99998629093170166,
        -0.99991041421890259,
        -1
      ],
      "type": "VEC4"
    },
    {
      "bufferView": 1,
      "componentType": 5126,
      "count": 65532,
      "max": [
        0.99902999401092529,
        0.99902999401092529
      ],
      "min": [
        0.00095999997574836016,
        0.00095999997574836016
      ],
      "type": "VEC2"
    },
    {
      "bufferView": 0,
      "componentType": 5125,
      "count": 356391,
      "max": [
        65531
      ],
      "min": [
        0
      ],
      "type": "SCALAR"
    },
    {
      "bufferView": 2,
      "byteOffset": 1572768,
      "componentType": 5126,
      "count": 65532,
      "max": [
        5.4849033355712891,
        3.100785493850708,
        14.917937278747559
      ],
      "min": [
        -13.315882682800293,
        -15.718386650085449,
        -14.265976905822754
      ],
      "type": "VEC3"
    },
    {
      "bufferView": 2,
      "byteOffset": 2359152,
      "componentType": 5126,
      "count": 65532,
      "max": [
        0.99947744607925415,
        0.99995547533035278,
        0.99993246793746948
      ],
      "min": [
        -0.99999338388442993,
        -0.99995094537734985,
        -0.99999910593032837
      ],
      "type": "VEC3"
    },
    {
      "bufferView": 3,
      "byteOffset": 1048512,
      "componentType": 5126,
      "count": 65532,
      "max": [
        0.99998712539672852,
        0.99998807907104492,
        0.99998265504837036,
        1
      ],
      "min": [
        -0.99999767541885376,
        -0.99992132186889648,
        -0.99999964237213135,
        -1
      ],
      "type": "VEC4"
    },
    {
      "bufferView": 1,
      "byteOffset": 524256,
      "componentType": 5126,
      "count": 65532,
      "max": [
        0.99901998043060303,
        0.99902999401092529
      ],
      "min": [
        0.00095999997574836016,
        0.00096999999368563294
      ],
      "type": "VEC2"
    },
    {
      "bufferView": 0,
      "byteOffset": 1425564,
      "componentType": 5125,
      "count": 355419,
      "max": [
        65531
      ],
      "min": [
        0
      ],
      "type": "SCALAR"
    },
    {
      "bufferView": 2,
      "byteOffset": 3145536,
      "componentType": 5126,
      "count": 11888,
      "max": [
        0.019501939415931702,
        1.5114758014678955,
        14.919614791870117
      ],
      "min": [
        -13.315882682800293,
        -14.452299118041992,
        -14.250482559204102
      ],
      "type": "VEC3"
    },
    {
      "bufferView": 2,
      "byteOffset": 3288192,
      "componentType": 5126,
      "count": 11888,
      "max": [
        0.98874849081039429,
        0.9996599555015564,
        0.99876433610916138
      ],
      "min": [
        -0.99965584278106689,
        -0.99998271465301514,
        -0.9999813437461853
      ],
      "type": "VEC3"
    },
    {
      "bufferView": 3,
      "byteOffset": 2097024,
      "componentType": 5126,
      "count": 11888,
      "max": [
        0.98831331729888916,
        0.99980443716049194,
        0.97369217872619629,
        -1
      ],
      "min": [
        -0.99683135747909546,
        -0.99979120492935181,
        -0.99993419647216797,
        -1
      ],
      "type": "VEC4"
    },
    {
      "bufferView": 1,
      "byteOffset": 1048512,
      "componentType": 5126,
      "count": 11888,
      "max": [
        0.99901998043060303,
        0.99902999401092529
      ],
      "min": [
        0.11452999711036682,
        0.00096999999368563294
      ],
      "type": "VEC2"
    },
    {
      "bufferView": 0,
      "byteOffset": 2847240,
      "componentType": 5125,
      "count": 64902,
      "max": [
        11887
      ],
      "min": [
        0
      ],
      "type": "SCALAR"
    }
  ],
  "asset": {
    "extras": {
      "author": "Adam Beamish (https://sketchfab.com/earthen)",
      "license": "CC-BY-NC-4.0 (http://creativecommons.org/licenses/by-nc/4.0/)",
      "source": "https://sketchfab.com/models/9ada9c6edc1c4509bb413b903c0824f4",
      "title": "Master Yoda"
    },
    "generator": "Sketchfab-3.18.2",
    "version": "2.0"
  },
  "bufferViews": [
    {
      "buffer": 0,
      "byteLength": 3106848,
      "byteOffset": 0,
      "name": "floatBufferViews",
      "target": 34963
    },
    {
      "buffer": 0,
      "byteLength": 1143616,
      "byteOffset": 3106848,
      "byteStride": 8,
      "name": "floatBufferViews",
      "target": 34962
    },
    {
      "buffer": 0,
      "byteLength": 3430848,
      "byteOffset": 4250464,
      "byteStride": 12,
      "name": "floatBufferViews",
      "target": 34962
    },
    {
      "buffer": 0,
      "byteLength": 2287232,
      "byteOffset": 7681312,
      "byteStride": 16,
      "name": "floatBufferViews",
      "target": 34962
    }
  ],
  "buffers": [
    {
      "byteLength": 9968544,
      "uri": "scene.bin"
    }
  ],
  "images": [
    {
      "uri": "textures/defaultMat_baseColor.png"
    }
  ],
  "materials": [
    {
      "doubleSided": false,
      "name": "defaultMat",
      "pbrMetallicRoughness": {
        "baseColorFactor": [
          1,
          1,
          1,
          1
        ],
        "baseColorTexture": {
          "index": 0,
          "texCoord": 0
        },
        "metallicFactor": 0,
        "roughnessFactor": 0.61756859760000005
      }
    }
  ],
  "meshes": [
    {
      "primitives": [
        {
          "attributes": {
            "NORMAL": 1,
            "POSITION": 0,
            "TANGENT": 2,
            "TEXCOORD_0": 3
          },
          "indices": 4,
          "material": 0,
          "mode": 4
        }
      ]
    },
    {
      "primitives": [
        {
          "attributes": {
            "NORMAL": 6,
            "POSITION": 5,
            "TANGENT": 7,
            "TEXCOORD_0": 8
          },
          "indices": 9,
          "material": 0,
          "mode": 4
        }
      ]
    },
    {
      "primitives": [
        {
          "attributes": {
            "NORMAL": 11,
            "POSITION": 10,
            "TANGENT": 12,
            "TEXCOORD_0": 13
          },
          "indices": 14,
          "material": 0,
          "mode": 4
        }
      ]
    }
  ],
  "nodes": [
    {
      "children": [
        1
      ],
      "name": "RootNode (gltf orientation matrix)",
      "rotation": [
        -0.70710678118654746,
        -0,
        -0,
        0.70710678118654757
      ]
    },
    {
      "children": [
        2
      ],
      "name": "RootNode (model correction matrix)"
    },
    {
      "children": [
        3,
        4,
        5
      ],
      "name": "Yoda Bust.OBJ.cleaner"
    },
    {
      "mesh": 0,
      "name": ""
    },
    {
      "mesh": 1,
      "name": ""
    },
    {
      "mesh": 2,
      "name": ""
    }
  ],
  "samplers": [
    {
      "magFilter": 9729,
      "minFilter": 9987,
      "wrapS": 10497,
      "wrapT": 10497
    }
  ],
  "scene": 0,
  "scenes": [
    {
      "name": "OSG_Scene",
      "nodes": [
        0
      ]
    }
  ],
  "textures": [
    {
      "sampler": 0,
      "source": 0
    }
  ]
}

